/* XPM */
static char *luffy_right_scaled[] = {
/* columns rows colors chars-per-pixel */
"48 48 232 2 ",
"   c #160803",
".  c #1B111A",
"X  c #181107",
"o  c #2C0D03",
"O  c #3A0904",
"+  c #271606",
"@  c #341806",
"#  c #2A1B17",
"$  c #351A12",
"%  c #3D1D11",
"&  c #382208",
"*  c #2E2416",
"=  c #3E2C15",
"-  c #3A2B1B",
";  c #382615",
":  c #2D2009",
">  c #151925",
",  c #18263B",
"<  c #372D21",
"1  c #3A332C",
"2  c #27293A",
"3  c #2E212A",
"4  c #4A0A06",
"5  c #5C0D0C",
"6  c #560902",
"7  c #461705",
"8  c #5C1B04",
"9  c #501517",
"0  c #6A0B01",
"q  c #670B06",
"w  c #671706",
"e  c #781604",
"r  c #750A04",
"t  c #46280B",
"y  c #592A08",
"u  c #493407",
"i  c #5C310A",
"p  c #452919",
"a  c #552E14",
"s  c #4C321A",
"d  c #4B3417",
"f  c #5A3716",
"g  c #612A05",
"h  c #6A360B",
"j  c #743D0C",
"k  c #783A08",
"l  c #67381A",
"z  c #7C3C15",
"x  c #732409",
"c  c #4C1E21",
"v  c #483827",
"b  c #563B23",
"n  c #563838",
"m  c #4D2D2A",
"M  c #64322A",
"N  c #54490A",
"B  c #5A4A13",
"V  c #4A4508",
"C  c #674A09",
"Z  c #68570E",
"A  c #715B0A",
"S  c #6A4318",
"D  c #774918",
"F  c #755917",
"G  c #704C11",
"H  c #7F6817",
"J  c #6A620D",
"K  c #59472B",
"L  c #4B4339",
"P  c #594630",
"I  c #564836",
"U  c #565224",
"Y  c #654628",
"T  c #774A28",
"R  c #79542B",
"E  c #6D4E32",
"W  c #654E38",
"Q  c #6A533B",
"!  c #665439",
"~  c #7A5B3B",
"^  c #745636",
"/  c #726333",
"(  c #1A384C",
")  c #122946",
"_  c #303D49",
"`  c #4E3C43",
"'  c #1E425D",
"]  c #25445A",
"[  c #38434C",
"{  c #1C4461",
"}  c #214D68",
"|  c #285977",
" . c #345871",
".. c #36617B",
"X. c #5B4E44",
"o. c #554A45",
"O. c #424A52",
"+. c #504B4A",
"@. c #675744",
"#. c #735A44",
"$. c #645757",
"%. c #776147",
"&. c #6B6558",
"*. c #746352",
"=. c #555E66",
"-. c #455560",
";. c #456376",
":. c #586B7A",
">. c #726B65",
",. c #76746D",
"<. c #871A07",
"1. c #901408",
"2. c #963206",
"3. c #90250A",
"4. c #A92B1B",
"5. c #A83316",
"6. c #B4381C",
"7. c #AA2D0C",
"8. c #BE2924",
"9. c #AE3522",
"0. c #C1351B",
"q. c #C92914",
"w. c #CD3A25",
"e. c #EA3D28",
"r. c #F13E2D",
"t. c #87470C",
"y. c #9C4A02",
"u. c #824612",
"i. c #955519",
"p. c #915013",
"a. c #A3490C",
"s. c #8E7618",
"d. c #97791A",
"f. c #8D6F0C",
"g. c #B26B13",
"h. c #844625",
"j. c #895A29",
"k. c #9B5D23",
"l. c #905920",
"z. c #835D37",
"x. c #9C5D35",
"c. c #A8572A",
"v. c #AF552F",
"b. c #85633A",
"n. c #976936",
"m. c #956429",
"M. c #AD6D32",
"N. c #B17233",
"B. c #BE7C3A",
"V. c #B57A33",
"C. c #AE6E2D",
"Z. c #DC441F",
"A. c #CD7712",
"S. c #C84325",
"D. c #D14D30",
"F. c #EA412A",
"G. c #F3402A",
"H. c #E24532",
"J. c #E5553C",
"K. c #C67A26",
"L. c #C4783B",
"P. c #E3613E",
"I. c #8C6B47",
"U. c #946A42",
"Y. c #8E704B",
"T. c #9A7448",
"R. c #8B7458",
"E. c #967856",
"W. c #806D53",
"Q. c #A47644",
"!. c #A47D55",
"~. c #88786B",
"^. c #9E821A",
"/. c #A58917",
"(. c #B18B1C",
"). c #B49115",
"_. c #9A8120",
"`. c #C3810C",
"'. c #C69706",
"]. c #C1991E",
"[. c #EA8219",
"{. c #D2AB09",
"}. c #D3AF11",
"|. c #D68328",
" X c #D0912D",
".X c #D1BE23",
"XX c #EDBE26",
"oX c #E89B2F",
"OX c #DDCD1D",
"+X c #EFCD16",
"@X c #F8D918",
"#X c #FDE219",
"$X c #F5D322",
"%X c #A5835C",
"&X c #B1844C",
"*X c #9A826D",
"=X c #A78A68",
"-X c #B9956B",
";X c #B79871",
":X c #A69075",
">X c #BEA07E",
",X c #C38645",
"<X c #CA9659",
"1X c #D59958",
"2X c #C59A67",
"3X c #C59D71",
"4X c #DBA367",
"5X c #CBA373",
"6X c #C9A579",
"7X c #D8AC78",
"8X c #E3AB6B",
"9X c #E3B37B",
"0X c #3C6C8A",
"qX c #537A95",
"wX c #738590",
"eX c #6C8BA6",
"rX c #7FA6CA",
"tX c #8C8D8D",
"yX c #BDA896",
"uX c #A79EA1",
"iX c #ADB7BD",
"pX c #CAAB84",
"aX c #D9B587",
"sX c #CBAD89",
"dX c #E2B987",
"fX c #E8BD8A",
"gX c #E8C18C",
"hX c #F2C28A",
"jX c #E3C49A",
"kX c #A5B7C0",
"lX c #C9D2DF",
"zX c #C2B280",
/* pixels */
"zXzXzXzXzXzXzXzXzXzXzXzXzXzXzXzXzXzXzXzXzXzXzXzXzXzXzXzXzXzXzXzXzXzXzXzXzXzXzXzXzXzXzXzXzXzXzXzX",
"zXzXzXzXzXzXzXzXzXzXzXzXzXzXzXzXzXzXzXzXzXzXzXzXB N N zXzXzXzXzXzXzXzXzXzXzXzXzXzXzXzXzXzXzXzXzX",
"zXzXzXzXzXzXzXzXzXzXzXzXzXzXzXzXzXzXzXzXzXU V Z /.)./.Z N zXzXzXzXzXzXzXzXzXzXzXzXzXzXzXzXzXzXzX",
"zXzXzXzXzXzXzXzXzXzXzXzXzXzXzXzXzXzXzXzXK A /.{.+X@X@X+X.Xf.zXzXzXzXzXzXzXzXzXzXzXzXzXzXzXzXzXzX",
"zXzXzXzXzXzXzXzXzXzXzXzXzXzXzXzXzXzXzXzXC /.'.{.{.+X@X#X#X.XG zXzXzXzXzXzXzXzXzXzXzXzXzXzXzXzXzX",
"zXzXzXzXzXzXzXzXzXzXzXzXzXzXzXzXzXzXzXzXC (.'.'.'.{.$X$X@XOXC zXzXzXzXzXzXzXzXzXzXzXzXzXzXzXzXzX",
"zXzXzXzXzXzXzXzXzXzXzXzXzXzXzXzXzXzXzXS g.A.g.'.g.y.A.[.[.[.t.h u u & zXzXzXzXzXzXzXzXzXzXzXzXzX",
"zXzXzXzXzXzXzXzXzXzXzXzXzXzXzXzXzXzXp 8 2.y.y.y.y.y.|.oXoX X(._.^._.C zXzXzXzXzXzXzXzXzXzXzXzXzX",
"zXzXzXzXzXzXzXzXzXzXzXzXzXzXzXzXzXzXM 6 e 2.c.B.|.].].f.Z Z Z J s./.A zXzXzXzXzXzXzXzXzXzXzXzXzX",
"zXzXzXzXzXzXzXzXzXzXzXzXzXzXzXzXzX/ H f.g.).d.F T G u +     : + & N zXzXzXzXzXzXzXzXzXzXzXzXzXzX",
"zXzXzXzXzXzXzXzXzXzXzXzXzXzXzXzXzXH ^.s.f.F u o * I < = @ a S & @ zXzXzXzXzXzXzXzXzXzXzXzXzXzXzX",
"zXzXzXzXzXzXzXzXzXzXzXzXzXzXzXzXZ _.s.u u d @ s &.>.! U ^ T.D u zXzXzXzXzXzXzXzXzXzXzXzXzXzXzXzX",
"zXzXzXzXzXzXzXzXzXzXzXzXzXzXzXzXB F N & Q T.D Q.yX*X:XE.5X7Xf zXzXzXzXzXzXzXzXzXzXzXzXzXzXzXzXzX",
"zXzXzXzXzXzXzXzXzXzXzXzXzXzXzXzXzXzXU p b Y.Q.<XaXjXfXdXfX-Xs zXzXzXv ^ b * < zXzXzXzXzXzXzXzXzX",
"zXzXzXzXzXzXzXzXzXzXzXzXzXzXzXzXzXzXzXv < ^ !.dXjXfX5X3X6X~ $ zXzXzXQ 3X=XY P I zXzXzXzXzXzXzXzX",
"zXzXzXzXzXzXzXzXzXzXzXzXzXzXzXzXzXzXzX>.~.#.l.1XhXsXb.Q R.Q zXzXzXzXl ,X7XaX>X%.I zXzXzXzXzXzXzX",
"zXzXzXzXzXzXzXzXzXzXzXzXzXzXzXzXzXQ P - p M c.Q.8X3X=X~.@.zXzXzXzXf T n.&X8X7X=XI zXzXzXzXzXzXzX",
"zXzXzXzXzXzXzXzXzXzXzXzXzXzXzXzXQ R.:X~ 7 w a.D.x.l a v zXzXzXzX$ E b.D Q.V.m.-XP zXzXzXzXzXzXzX",
"zXzXzXzXzXzXzXzXzXzXzXzXzXzXzXX.R.aXhX7XU.e 7.6.h.4 o + @ zXzXzX% T !.z.g k n.=XP zXzXzXzXzXzXzX",
"zXzXzXzXzXzXzXzXzXzXzXzXzXzXzXL %X9X8XfX<XD <.6.3.q 5 z y zXzXzXzXa l t 4 h h.E zXzXzXzXzXzXzXzX",
"zXzXzXzXzXzXzXzXzXzXzXzXzXzXzXK %X4X1X8X<Xj e w.6.3.<.v.c.l zXzXzXzX7 y a 7 y zXzXzXzXzXzXzXzXzX",
"zXzXzXzXzXzXzXzXzXzXzXzXzXzX%.E.5X1XB.,Xp.e 6.J.P.3.w C.V.m.S zXzXg k u.l O zXzXzXzXzXzXzXzXzXzX",
"zXzXzXzXzXzXzXzXzXzXzXzXzX*.R.7XaXQ.l x <.4.H.H.w.e 4 h k.M.l.D i k t.k a zXzXzXzXzXzXzXzXzXzXzX",
"zXzXzXzXzXzXzXzXzXzXzXzX$.R.6X7XT.a o q 4.H.e.7.1.0 O zXg p.C.t.k t.k g zXzXzXzXzXzXzXzXzXzXzXzX",
"zXzXzXzXzXzXzXzXzXzXzXzXo.:X5Xz.+   4 4.H.e.e.6.<.5 9 zXzXg h j u.j y zXzXzXzXzXzXzXzXzXzXzXzXzX",
"zXzXzXzXzXzXzXzXzXzXzXzXX.R.#.& - $ q 8.e.e.Z.w.e 4 zXzXzXzX7 y i i zXzXzXzXzXzXzXzXzXzXzXzXzXzX",
"zXzXzXzXzXzXzXzXzXzXzXzXzXX.I L $.m 1.q.G.q.8.7.0 4 zXzXzXzXzXp % zXzXzXzXzXzXzXzXzXzXzXzXzXzXzX",
"zXzXzXzXzXzXzXzXzXzXzXzXzXzXzXtX` 5 q.e.G.F.S.D.e 6 O zXzXzXzXzXzXzXzXzXzXzXzXzXzXzXzXzXzXzXzXzX",
"zXzXzXzXzXzXzXzXzXzXzXzXzXzXzXzXn 5 q.r.r.0.9.D.<.r 5 $ zXzXzXzXzXzXzXzXzXzXzXzXzXzXzXzXzXzXzXzX",
"zXzXzXzXzXzXzXzXzXzXzXzXzXzXzXwXn 5 8.r.r.4.w g 0 0 5 X > 2 [ zXzXzXzXzXzXzXzXzXzXzXzXzXzXzXzXzX",
"zXzXzXzXzXzXzXzXzXzXzXzXzXzXzX` 3 m 9.w.4.9 3 ( . . > > ( ] _ _ 1 < zXzXzXzXzXzXzXzXzXzXzXzXzXzX",
"zXzXzXzXzXzXzXzXzXzXzXzXzXzX=.-.` ` c m c 2 _ } { ( { { | 0X:.&.v ; b zXzXzXzXzXzXzXzXzXzXzXzXzX",
"zXzXzXzXzXzXzXzXzXzXzXzXzX$.tXkXkXeX;.0X . .| | | } 0X| 0XqXwX*.R j.T a zXzXzXzXzXzXzXzXzXzXzXzX",
"zXzXzXzXzXzXzXzXzXzXzXzX- p @.~.iXlXkXqX0X{ ( , ) ) { | ..wX#.R N.&Xh.t zXzXzXzXzXzXzXzXzXzXzXzX",
"zXzXzXzXzXzXzXzXzXzXzXzX% E Y.!.~.uXeX} ( ] zXzXzXzX) ( ;.*XY l.,Xk.G zXzXzXzXzXzXzXzXzXzXzXzXzX",
"zXzXzXzXzXzXzXzXzXzXzXzXt T.dX7Xz.*.=._ zXzXzXzXzXzXzXzXO.L R n.k.D zXzXzXzXzXzXzXzXzXzXzXzXzXzX",
"zXzXzXzXzXzXzXzXzXzXzXzXt T.<Xn.d v O.zXzXzXzXzXzXzXzXzXzX; p.j.D zXzXzXzXzXzXzXzXzXzXzXzXzXzXzX",
"zXzXzXzXzXzXzXzXzXzXzXzXd Y.z.& & zXzXzXzXzXzXzXzXzXzXzXzXf k.G f zXzXzXzXzXzXzXzXzXzXzXzXzXzXzX",
"zXzXzXzXzXzXzXzXzXzXzXo.*.*XK # zXzXzXzXzXzXzXzXzXzXzXzXt R m.l zXzXzXzXzXzXzXzXzXzXzXzXzXzXzXzX",
"zXzXzXzXzXzXzXzXzXzXzXI 6XpXK zXzXzXzXzXzXzXzXzXzXzXzXzXd b.f zXzXzXzXzXzXzXzXzXzXzXzXzXzXzXzXzX",
"zXzXzXzXzXzXzXzXzXzX! / aX6XP zXzXzXzXzXzXzXzXzXzXzXzXt l M.D f zXzXzXzXzXzXzXzXzXzXzXzXzXzXzXzX",
"zXzXzXzXzXzXzXzXzXzX#.;XhX5XP zXzXzXzXzXzXzXzXzXzXzXzXy k. XV.D S zXzXzXzXzXzXzXzXzXzXzXzXzXzXzX",
"zXzXzXzXzXzXzXzXv d Y.7X2XY.- zXzXzXzXzXzXzXzXzXzXzX= k C.|.|.B.G 7 a zXzXzXzXzXzXzXzXzXzXzXzXzX",
"zXzXzXzXzXzXzXX.v @ f n.G d # * zXzXzXzXzXzXzXzXzXzX@ t.K.K.K.N.G i E b v zXzXzXzXzXzXzXzXzXzXzX",
"zXzXzXzXzXzX@.%.=X~ @ K !.E.$ X zXzXzXzXzXzXzXzXzXzX; h i.k.p.j y R b.b.W v zXzXzXzXzXzXzXzXzXzX",
"zXzXzXzXzXX.I %XsXR.d R.sXpXI.= zXzXzXzXzXzXzXzXzXzXX : ; t p # # = K d < < zXzXzXzXzXzXzXzXzXzX",
"zXzXzXzXzXv - K @.L * X.@.! K zXzXzXzXzXzXzXzXzXzXzXzXzXzXzXzXzXzXzXzXzXzXzXzXzXzXzXzXzXzXzXzXzX",
"zXzXzXzXzXzXX.#.#.*.&.>.,.&.zXzXzXzXzXzXzXzXzXzXzXzXzXzXzXzXzXzXzXzXzXzXzXzXzXzXzXzXzXzXzXzXzXzX"
};
