/* XPM */
static char *luffy_left_scaled[] = {
/* columns rows colors chars-per-pixel */
"48 48 231 2 ",
"   c #1A0703",
".  c #181313",
"X  c #270D04",
"o  c #370601",
"O  c #291303",
"+  c #271507",
"@  c #3C1C05",
"#  c #351807",
"$  c #2D1A12",
"%  c #3A1815",
"&  c #392609",
"*  c #2D2517",
"=  c #372817",
"-  c #141B24",
";  c #3A1F25",
":  c #172736",
">  c #342725",
",  c #373839",
"<  c #2A2D39",
"1  c #480902",
"2  c #5C0904",
"3  c #590904",
"4  c #451705",
"5  c #571607",
"6  c #491B19",
"7  c #561914",
"8  c #680B03",
"9  c #691A06",
"0  c #791605",
"q  c #47270B",
"w  c #582707",
"e  c #493808",
"r  c #5D340C",
"t  c #462A14",
"y  c #562C13",
"u  c #4A3518",
"i  c #533316",
"p  c #54341A",
"a  c #573715",
"s  c #632F09",
"d  c #75270B",
"f  c #67370C",
"g  c #75390B",
"h  c #663A16",
"j  c #703A12",
"k  c #4B3A24",
"l  c #483A2B",
"z  c #543C24",
"x  c #453A36",
"c  c #492725",
"v  c #6B2923",
"b  c #574906",
"n  c #574D14",
"m  c #674D07",
"M  c #77430E",
"N  c #69550B",
"B  c #79540E",
"V  c #6D4413",
"C  c #68431C",
"Z  c #774618",
"A  c #695714",
"S  c #745B16",
"D  c #7B6014",
"F  c #594529",
"G  c #554533",
"H  c #5D4B36",
"J  c #584833",
"K  c #6B4B2C",
"L  c #674726",
"P  c #764C21",
"I  c #755224",
"U  c #7B572C",
"Y  c #624E39",
"T  c #695439",
"R  c #775836",
"E  c #74632B",
"W  c #19374B",
"Q  c #313E48",
"!  c #2F3B45",
"~  c #1C415B",
"^  c #25435B",
"/  c #3C4853",
"(  c #234A65",
")  c #2E4D69",
"_  c #2B5472",
"`  c #255574",
"'  c #335C78",
"]  c #2D526C",
"[  c #38617A",
"{  c #564D48",
"}  c #5C5143",
"|  c #494F55",
" . c #655947",
".. c #685845",
"X. c #785B41",
"o. c #645655",
"O. c #7A634A",
"+. c #686358",
"@. c #716353",
"#. c #425E75",
"$. c #46637C",
"%. c #546672",
"&. c #7E7D7B",
"*. c #726C61",
"=. c #861806",
"-. c #8B1008",
";. c #992812",
":. c #86391A",
">. c #9C3711",
",. c #8C2E09",
"<. c #A82C1A",
"1. c #B72319",
"2. c #AD3A1D",
"3. c #B6371B",
"4. c #A22E05",
"5. c #BC3828",
"6. c #A12D23",
"7. c #C62B1B",
"8. c #C3361F",
"9. c #C7240F",
"0. c #D93322",
"q. c #C03223",
"w. c #E93B29",
"e. c #F23F2B",
"r. c #884A0D",
"t. c #844814",
"y. c #95551A",
"u. c #8F4D1C",
"i. c #A34703",
"p. c #A65101",
"a. c #AA5A18",
"s. c #8D7418",
"d. c #967918",
"f. c #886B11",
"g. c #AC670B",
"h. c #875623",
"j. c #985B24",
"k. c #825C37",
"l. c #9D5930",
"z. c #B54627",
"x. c #A94329",
"c. c #9A6327",
"v. c #9A6836",
"b. c #8F6D38",
"n. c #A86829",
"m. c #A7792B",
"M. c #B57729",
"N. c #B47536",
"B. c #A47039",
"V. c #CB7F0F",
"C. c #C47414",
"Z. c #DA432C",
"A. c #D2492C",
"S. c #E8422B",
"D. c #E44834",
"F. c #F5402A",
"G. c #C57D28",
"H. c #C37A35",
"J. c #CD7225",
"K. c #E5633D",
"L. c #896945",
"P. c #8E704C",
"I. c #9A734A",
"U. c #8E7457",
"Y. c #997A57",
"T. c #956E45",
"R. c #BC7D42",
"E. c #A3784B",
"W. c #887866",
"Q. c #927C69",
"!. c #9C841D",
"~. c #A98818",
"^. c #B79317",
"/. c #B38415",
"(. c #9E9120",
"). c #AF882D",
"_. c #C9970A",
"`. c #CC8B16",
"'. c #E68512",
"]. c #D2A809",
"[. c #D2B918",
"{. c #D9B308",
"}. c #CC8528",
"|. c #D99029",
" X c #CEAE28",
".X c #EB992D",
"XX c #ECCC16",
"oX c #F2D41B",
"OX c #E2D11F",
"+X c #F5E11B",
"@X c #EDD321",
"#X c #F0D722",
"$X c #A68157",
"%X c #BC874B",
"&X c #97836B",
"*X c #A78765",
"=X c #B6936C",
"-X c #B09471",
";X c #CC9053",
":X c #C89A69",
">X c #D69D61",
",X c #C49E73",
"<X c #CAA579",
"1X c #D3AC7B",
"2X c #D9AA77",
"3X c #D1A16F",
"4X c #E3A869",
"5X c #E6B57E",
"6X c #3C6989",
"7X c #587389",
"8X c #4C7BA0",
"9X c #788288",
"0X c #6F808D",
"qX c #6F8AA3",
"wX c #BDA996",
"eX c #A19CA5",
"rX c #9FB5BA",
"tX c #A1B6BC",
"yX c #C7A984",
"uX c #DCB181",
"iX c #D0B493",
"pX c #E3BB8B",
"aX c #E9BF8E",
"sX c #C4B9BE",
"dX c #F2C088",
"fX c #E9C292",
"gX c #E9C18F",
"hX c #DFC5A6",
"jX c #82A4C9",
"kX c #CFCEE5",
"lX c #C2B280",
/* pixels */
"lXlXlXlXlXlXlXlXlXlXlXlXlXlXlXlXlXlXlXlXlXlXlXlXlXlXlXlXlXlXlXlXlXlXlXlXlXlXlXlXlXlXlXlXlXlXlXlX",
"lXlXlXlXlXlXlXlXlXlXlXlXlXlXlXlXlXlXlXlXlXb b b lXlXlXlXlXlXlXlXlXlXlXlXlXlXlXlXlXlXlXlXlXlXlXlX",
"lXlXlXlXlXlXlXlXlXlXlXlXlXlXlXlXlXlXE b N !.^./.N e lXlXlXlXlXlXlXlXlXlXlXlXlXlXlXlXlXlXlXlXlXlX",
"lXlXlXlXlXlXlXlXlXlXlXlXlXlXlXlXlXA s.[.OXoXoXXX[.^.B C lXlXlXlXlXlXlXlXlXlXlXlXlXlXlXlXlXlXlXlX",
"lXlXlXlXlXlXlXlXlXlXlXlXlXlXlXlXlXN [.+X+X+XXX].]._.~.b lXlXlXlXlXlXlXlXlXlXlXlXlXlXlXlXlXlXlXlX",
"lXlXlXlXlXlXlXlXlXlXlXlXlXlXlXlXlXN oXoXoXXX]._._._.^.m lXlXlXlXlXlXlXlXlXlXlXlXlXlXlXlXlXlXlXlX",
"lXlXlXlXlXlXlXlXlXlXlXlXlXe & e f r.|.'.'.C.p.C.V.V.V.g.f lXlXlXlXlXlXlXlXlXlXlXlXlXlXlXlXlXlXlX",
"lXlXlXlXlXlXlXlXlXlXlXlXF A !.!.m.). X|..XJ.i.i.p.i.i.,.w lXlXlXlXlXlXlXlXlXlXlXlXlXlXlXlXlXlXlX",
"lXlXlXlXlXlXlXlXlXlXlXlXlXA (.s.N A N N f.^.}.}.M.a.4.=.3 lXlXlXlXlXlXlXlXlXlXlXlXlXlXlXlXlXlXlX",
"lXlXlXlXlXlXlXlXlXlXlXlXlXlXb & O 4     X b A A f.d./.M.g.B lXlXlXlXlXlXlXlXlXlXlXlXlXlXlXlXlXlX",
"lXlXlXlXlXlXlXlXlXlXlXlXlXlXlXO q C i @ = = J > X e S f.d.m.s.lXlXlXlXlXlXlXlXlXlXlXlXlXlXlXlXlX",
"lXlXlXlXlXlXlXlXlXlXlXlXlXlXlXlXq Z T.U L H *.+.= O u e e d.!.S lXlXlXlXlXlXlXlXlXlXlXlXlXlXlXlX",
"lXlXlXlXlXlXlXlXlXlXlXlXlXlXlXlXlXC 3X:XU.-X&XwXE.V Y.R & b A A lXlXlXlXlXlXlXlXlXlXlXlXlXlXlXlX",
"lXlXlXlXlXlXlXlXlXlX@ p K L lXlXlXi :XpXpXfXhXiX:XE.T.z & n lXlXlXlXlXlXlXlXlXlXlXlXlXlXlXlXlXlX",
"lXlXlXlXlXlXlXlXlXF z $X:XK lXlXlX% R yX,X,XgXdX5XE.Y = * lXlXlXlXlXlXlXlXlXlXlXlXlXlXlXlXlXlXlX",
"lXlXlXlXlXlXlXJ T <X2X2X;Xh lXlXlXlXY U.T R 1XdX>Xh.R lXlXlXlXlXlXlXlXlXlXlXlXlXlXlXlXlXlXlXlXlX",
"lXlXlXlXlXlXlXJ *X1X4X%Xv.C i lXlXlXlX..Q.*X:X>XH.l.v % = z ..lXlXlXlXlXlXlXlXlXlXlXlXlXlXlXlXlX",
"lXlXlXlXlXlXlXF =Xv.N.B.Z L.K = lXlXlXlXc p V j.J.2.d 4 X.-XY...lXlXlXlXlXlXlXlXlXlXlXlXlXlXlXlX",
"lXlXlXlXlXlXlXG *Xv.g 5 k.*XK = lXlXlX# X o 4 :.2.>.0 v.uXdXuXQ.lXlXlXlXlXlXlXlXlXlXlXlXlXlXlXlX",
"lXlXlXlXlXlXlXlXL U f 4 q u p lXlXlXlXy P 2 2 =.<.=.:.:XaX4X5XY.H lXlXlXlXlXlXlXlXlXlXlXlXlXlXlX",
"lXlXlXlXlXlXlXlXlXq 4 w y 4 lXlXlXlXC c.n.,.;.5.5.=.j ;X4X;X>XE.H lXlXlXlXlXlXlXlXlXlXlXlXlXlXlX",
"lXlXlXlXlXlXlXlXlXlX# i r.g s lXlXV c.N.n.9 4.K.D.2.d u.H.R.>X2XY.X.lXlXlXlXlXlXlXlXlXlXlXlXlXlX",
"lXlXlXlXlXlXlXlXlXlXlXq M r.g w g y.N.j.s 1 0 8.D.Z.3.=.d h I.pX1XP.X.lXlXlXlXlXlXlXlXlXlXlXlXlX",
"lXlXlXlXlXlXlXlXlXlXlXlXw :.r.g t.a.y.f a o 2 -.7.0.Z.<.8 o y I.3X1XU...lXlXlXlXlXlXlXlXlXlXlXlX",
"lXlXlXlXlXlXlXlXlXlXlXlXlXw j t.g s r lXlX7 2 -.z.S.S.S.1.3   O k.3X=XH lXlXlXlXlXlXlXlXlXlXlXlX",
"lXlXlXlXlXlXlXlXlXlXlXlXlXlX5 s s lXlXlXlXlX1 0 8.Z.w.F.1.8 $ > & R U.H lXlXlXlXlXlXlXlXlXlXlXlX",
"lXlXlXlXlXlXlXlXlXlXlXlXlXlXlX# lXlXlXlXlXlX1 8 4.9.0.w.7.-.c { > t k lXlXlXlXlXlXlXlXlXlXlXlXlX",
"lXlXlXlXlXlXlXlXlXlXlXlXlXlXlXlXlXlXlXlXlX1 1 -.A.A.w.e.e.7.7 lXlXlXlXlXlXlXlXlXlXlXlXlXlXlXlXlX",
"lXlXlXlXlXlXlXlXlXlXlXlXlXlXlXlXlXlXlXlXo 2 8 -.z.6.q.w.e.7.2 lXlXlXlXlXlXlXlXlXlXlXlXlXlXlXlXlX",
"lXlXlXlXlXlXlXlXlXlXlXlXlXlXlXlXlX! : -   7 8 8 v 9 6.w.S.q.2 6 lXlXlXlXlXlXlXlXlXlXlXlXlXlXlXlX",
"lXlXlXlXlXlXlXlXlXlXlXlXlXlX* * , Q ^ W - - . . < > 6 6.5.x.v $ < lXlXlXlXlXlXlXlXlXlXlXlXlXlXlX",
"lXlXlXlXlXlXlXlXlXlXlXlXlXlX& k +.%.6X_ ( ~ ^ ~ ] Q < ; c c , | | | lXlXlXlXlXlXlXlXlXlXlXlXlXlX",
"lXlXlXlXlXlXlXlXlXlXlXlXlXj k.R @.0X7X' ` ' ` _ ' _ ' ' [ #.9XtXtXW.Q lXlXlXlXlXlXlXlXlXlXlXlXlX",
"lXlXlXlXlXlXlXlXlXlXlXlX# P R.N.U +.0X$.` ( W : : W ( 6X8XjXkXsXQ.T t $ lXlXlXlXlXlXlXlXlXlXlXlX",
"lXlXlXlXlXlXlXlXlXlXlXlXlXf c.H.j.K &X$.W W lXlXlXlXW W ] qXeX&XY.Y.K & lXlXlXlXlXlXlXlXlXlXlXlX",
"lXlXlXlXlXlXlXlXlXlXlXlXlXlXV a.n.K | / / lXlXlXlXlXlXlX! %.+.R 5X5XI.t lXlXlXlXlXlXlXlXlXlXlXlX",
"lXlXlXlXlXlXlXlXlXlXlXlXlXlXlXg j.h.$ lXlXlXlXlXlXlXlXlXlX, x q b.:XI.q lXlXlXlXlXlXlXlXlXlXlXlX",
"lXlXlXlXlXlXlXlXlXlXlXlXlXlXlXlXj c.F lXlXlXlXlXlXlXlXlXlXlXlX$ 4 R I.u lXlXlXlXlXlXlXlXlXlXlXlX",
"lXlXlXlXlXlXlXlXlXlXlXlXlXlXlXlXh v.E & lXlXlXlXlXlXlXlXlXlXlXlX$ z *XO.o.lXlXlXlXlXlXlXlXlXlXlX",
"lXlXlXlXlXlXlXlXlXlXlXlXlXlXlXlXlXf h.i lXlXlXlXlXlXlXlXlXlXlXlXlXG yXyXx lXlXlXlXlXlXlXlXlXlXlX",
"lXlXlXlXlXlXlXlXlXlXlXlXlXlXlXlXf M m.Z @ lXlXlXlXlXlXlXlXlXlXlXlXG <XuXX.T lXlXlXlXlXlXlXlXlXlX",
"lXlXlXlXlXlXlXlXlXlXlXlXlXlXlXa B M.G.a.y lXlXlXlXlXlXlXlXlXlXlXlXG <XdX=XT lXlXlXlXlXlXlXlXlXlX",
"lXlXlXlXlXlXlXlXlXlXlXlXlXi q V M.}.}.M.P t lXlXlXlXlXlXlXlXlXlXlX= P.:XuXP.z x lXlXlXlXlXlXlXlX",
"lXlXlXlXlXlXlXlXlXlXlXk i I f V N.G.G.M.t.# lXlXlXlXlXlXlXlXlXlX. + u I b.F @ k  .lXlXlXlXlXlXlX",
"lXlXlXlXlXlXlXlXlXlXx T E b.U e j u.y.y.h & lXlXlXlXlXlXlXlXlXlX  = Y.$XF # T -XO.Y lXlXlXlXlXlX",
"lXlXlXlXlXlXlXlXlXlX* = a u q O X q 4 4 # . lXlXlXlXlXlXlXlXlXlX# L.yXyXU.k *.iX&XG  .lXlXlXlXlX",
"lXlXlXlXlXlXlXlXlXlXlXlXlXlXlXlXlXlXlXlXlXlXlXlXlXlXlXlXlXlXlXlXlXF T +.} = F ..F = x lXlXlXlXlX",
"lXlXlXlXlXlXlXlXlXlXlXlXlXlXlXlXlXlXlXlXlXlXlXlXlXlXlXlXlXlXlXlXlXlXH +.+.}  . . .} lXlXlXlXlXlX"
};
