/* XPM */
static char *a87350ede64f49a6c98e60b8797ceabbQMiYImWVoj4Zs5M7[] = {
/* columns rows colors chars-per-pixel */
"48 48 35 1 ",
"  c black",
". c #241C1A",
"X c #241B1C",
"o c #2C221E",
"O c #151327",
"+ c #45283C",
"@ c #433067",
"# c #73655C",
"$ c #74675F",
"% c #746761",
"& c #776861",
"* c #85766F",
"= c #8B7C75",
"- c #8B7E78",
"; c #96857D",
": c #5D48A3",
"> c #A46DC0",
", c #9B8D83",
"< c #A3928A",
"1 c #AA998F",
"2 c #A59B92",
"3 c #AFA29A",
"4 c #BAACA3",
"5 c #B9ACA4",
"6 c #C3B5AC",
"7 c #C5B7B0",
"8 c #C8BEB5",
"9 c #CAC0B6",
"0 c #CEC4BB",
"q c #D0C6BD",
"w c #D4C7BF",
"e c #D3CAC1",
"r c #D3CAC5",
"t c #DED7D1",
"y c #EEE9E5",
/* pixels */
"OOOOOOOOOOOOOOOOOOOOO0eq6<OOOOOOOOOOOOOOOOOOOOOO",
"O 0eq6<             4w71,#;              0eq6< O",
"O4w71,#;OOOOOOOOOOOO;..*XX=OOOOOOOOOOOOO4w71,#;O",
"O;..*XX=O++++++++++O9oo9oo-O+++++++++++O;..*XX=O",
"O9oo9oo-OOOOOOOOOOOOer5o32$OOOOOOOOOOOOO9oo9oo-O",
"Oer5o32$             qe8&%              er5o32$O",
"O qe8&%OOOOOOOOOOOOOOyOtOtOOOOOOOOOOOOOOOqe8&% O",
"O y t t                                  y t t O",
"+ O                                          O O",
"+ O                                          O O",
"+ O                                          O +",
"+ O                                          O +",
"+ O                                          O +",
"+ O                                          O +",
"+ O                                          + +",
"+ O                                          + O",
"+ O                                          + O",
"+ O                                          + O",
"+ +                                          + O",
"O +                                          + O",
"O +                                          + +",
"O +                                          O +",
"O +                                          O +",
"O +                                          O +",
"+ +                                          O +",
"+ O                                          O +",
"+ O                                          O +",
"+ O                                          O +",
"+ O                                          O +",
"+ O                                          O +",
"+ +                                          O +",
"O +                                          O +",
"O +                                          O +",
"O +  O           O            O           O  O +",
"O + O>O         O>O          O>O         O>O O +",
"+ + O>O         O>O          O>O         O>O O +",
"+ O O>O    O    O>O    O     O>O    O    O>O O +",
"+ O O>O    O    O>O    O     O>O    O    O>O O +",
"+ OO::>O  OOO  O::>O  OOO   O::>O  OOO  O::>OO +",
"+ OO:::O  OOO  O:::O  OOO   O:::O  OOO  O:::OO +",
"O OO:::O  OOO  O:::O  OOO   O:::O  OOO  O:::O+ +",
"O OO:::O OOOOO O:::O OOOOO  O:::O OOOOO O:::O+ O",
"O OO:::O OOOOO O:::O OOOOO  O:::O OOOOO O:::O+ O",
"O OO@::O OOOOO O@::O OOOOO  O@::O OOOOO O@::OO O",
"O O@@@@@OOOOOOO@@@@@OOOOOO O@@@@@OOOOOOO@@@@@O O",
"O O@@@@@OOOOOOO@@@@@OOOOOO O@@@@@OOOOOOO@@@@@O O",
"O O@@@@@OOOOOOO@@@@@OOOOOOOO@@@@@OOOOOOO@@@@@O O",
"O O@@@@@OOOOOOO@@@@@OOOOOOOO@@@@@OOOOOOO@@@@@O O"
};
