/* XPM */
static char *a87377922cb044dfbbcb873d9e5812fajTwq4qliIQSxdUUa[] = {
/* columns rows colors chars-per-pixel */
"48 48 195 2 ",
"   c #C2B280",
".  c #2B0E1E",
"X  c #32101E",
"o  c #39121B",
"O  c #2D0E22",
"+  c #2D1325",
"@  c #2E1329",
"#  c #331225",
"$  c #3B1524",
"%  c #391B25",
"&  c #33152B",
"*  c #321B2B",
"=  c #351D30",
"-  c #3E232C",
";  c #372034",
":  c #3B2434",
">  c #3E2A38",
",  c #43161B",
"<  c #45191E",
"1  c #4B1A1B",
"2  c #521C1B",
"3  c #5A1F1A",
"4  c #54201E",
"5  c #5C211D",
"6  c #62231D",
"7  c #6C291E",
"8  c #732C1D",
"9  c #792E1E",
"0  c #7D311D",
"q  c #401723",
"w  c #421923",
"e  c #4B1C21",
"r  c #511E22",
"t  c #4C2227",
"y  c #45242B",
"u  c #4B242B",
"i  c #5C2323",
"p  c #5B2C2D",
"a  c #4B2633",
"s  c #4B2B32",
"d  c #422E3E",
"f  c #522C32",
"g  c #512F39",
"h  c #48313D",
"j  c #5D3335",
"k  c #53343B",
"l  c #5B3A3D",
"z  c #642523",
"x  c #642925",
"c  c #6E2B25",
"v  c #622D29",
"b  c #732E23",
"n  c #782F21",
"m  c #6D322C",
"M  c #7C3224",
"N  c #733329",
"B  c #613435",
"V  c #663935",
"C  c #793D31",
"Z  c #69453A",
"A  c #402B40",
"S  c #4B3545",
"D  c #4A354A",
"F  c #593D43",
"G  c #643F46",
"H  c #58414C",
"J  c #54475A",
"K  c #5A495A",
"L  c #684542",
"P  c #7A4F40",
"I  c #73514C",
"U  c #79554C",
"Y  c #684C51",
"T  c #6E525A",
"R  c #775959",
"E  c #5C4E63",
"W  c #685968",
"Q  c #6B5B6B",
"!  c #715E66",
"~  c #745F67",
"^  c #79636B",
"/  c #6E6174",
"(  c #726374",
")  c #796875",
"_  c #84331E",
"`  c #8C3A1D",
"'  c #933C1D",
"]  c #993D1E",
"[  c #A13E1C",
"{  c #833523",
"}  c #8B3723",
"|  c #863824",
" . c #8B3B26",
".. c #863C2A",
"X. c #933D24",
"o. c #943E27",
"O. c #B44D1F",
"+. c #BC5A1E",
"@. c #954124",
"#. c #9B4224",
"$. c #97462B",
"%. c #904A33",
"&. c #A24623",
"*. c #A64925",
"=. c #AB4B24",
"-. c #A34A29",
";. c #AA4E28",
":. c #B14E24",
">. c #AE5126",
",. c #AD532B",
"<. c #B45325",
"1. c #BA5524",
"2. c #BD5A25",
"3. c #B1552A",
"4. c #BD5C29",
"5. c #A35331",
"6. c #BF6128",
"7. c #BD6333",
"8. c #C25E25",
"9. c #C15D29",
"0. c #C46325",
"q. c #C76923",
"w. c #CA6B26",
"e. c #C4632A",
"r. c #C76628",
"t. c #C8662A",
"y. c #CB6B2B",
"u. c #D16C2D",
"i. c #CC7126",
"p. c #CE7029",
"a. c #D3742C",
"s. c #D67B2D",
"d. c #D97D2E",
"f. c #C66932",
"g. c #D37531",
"h. c #D67A31",
"j. c #D97C31",
"k. c #E07D2E",
"l. c #825A4D",
"z. c #8A5B49",
"x. c #9E6349",
"c. c #8C6759",
"v. c #936653",
"b. c #996D56",
"n. c #A87356",
"m. c #A3745A",
"M. c #B57A58",
"N. c #8D6E65",
"B. c #987463",
"V. c #837179",
"C. c #DB832F",
"Z. c #DD8433",
"A. c #DE8937",
"S. c #E18534",
"D. c #E28C35",
"F. c #E48D39",
"G. c #E5923A",
"H. c #E9963D",
"J. c #EA9A3D",
"K. c #BC825E",
"L. c #A88468",
"P. c #B78363",
"I. c #BA926C",
"U. c #C8875C",
"Y. c #E59240",
"T. c #ED9D44",
"R. c #F19940",
"E. c #EEA142",
"W. c #F1A645",
"Q. c #F0A348",
"!. c #F5AA4A",
"~. c #FCB453",
"^. c #C38965",
"/. c #CA9469",
"(. c #D39263",
"). c #D59A6B",
"_. c #DB9C6C",
"`. c #C89B74",
"'. c #D39D70",
"]. c #DEA26E",
"[. c #C5A272",
"{. c #D6A775",
"}. c #E3A374",
"|. c #E2AA75",
" X c #E7AC77",
".X c #E8B67C",
"XX c #EFC27F",
"oX c #766A81",
"OX c #837785",
"+X c #8C808E",
"@X c #988995",
"#X c #988D9A",
"$X c #DFB988",
"%X c #E9C388",
"&X c #F2C885",
/* pixels */
"                                                                                                ",
"                                                                                                ",
"                                                                                                ",
"                                                                                                ",
"                              J J J J J J J E /                                                 ",
"                          d + # + + . + + + * Y                                                 ",
"                          f < 1 2 2 1 , , , w l ~                                               ",
"                        j 5 6 8 8 8 7 6 5 5 5 p k K (                                           ",
"                      w 5 8 0 ` @.@.` _ n b 7 5 w % K                                           ",
"                    p z 9 } #.>.2.4.>.-.#.X.{ 8 5 t l Q                                         ",
"                  B N ..X.&.1.r.a.a.y.6.3.&.' _ 8 6 p g S                                       ",
"                < x | $.;.:.8.u.C.k.g.u.6.,.&.] ` n i o =                                       ",
"              p 5 0 o.=.2.0.t.y.u.u.t.r.6.2.O.=.&.@.c w * E                                     ",
"          D s i c ' &.<.6.t.t.t.8.8.2.+.2.e.r.6.3.-.M < % Q                                     ",
"          @ w x M X.:.4.0.y.y.t.+.+.+.8.0.f.f.t.4.3. .5 e T @X                                  ",
"        D O r b ` &.1.e.a.h.h.y.0.q.p.s.h.a.u.t.9.4.*.0 v G ~                                   ",
"        D # r M X.<.8.r.a.Z.j.a.q.q.Z.G.A.g.y.q.0.0.<.#.M m k S                                 ",
"        D $ z | #.1.8.w.d.S.D.d.i.s.G.W.T.C.a.i.w.y.2.=.$.m % ;                                 ",
"        D $ z ..>.2.w.a.S.G.G.S.Z.A.E.!.!.E.D.C.C.s.a.e.;.%.1 * Q                               ",
"        A $ v @.,.2.y.s.D.J.R.F.A.Y.!.~.~.!.E.G.D.S.s.g.7.$.4 % Q                               ",
"          # x $.,.6.r.h.Z.H.T.F.Z.F.Q.~.~.!.W.E.G.S.d.a.7.$.x t T @X                            ",
"          # i  .*.2.e.y.d.S.S.a.i.a.D.E.E.!.W.J.S.a.u.r.4.-.{ v G ~ )                           ",
"          # i _ &.<.6.f.u.a.u.t.0.q.s.D.G.E.E.J.d.w.q.8.2.=.@.C B a D (                         ",
"          # 3 9 ] :.2.e.t.y.t.8.+.q.a.C.D.J.E.D.h.w.0.8.2.<.$.M v q ; (                         ",
"          O r c } &.<.9.9.9.9.4.8.0.w.d.S.D.H.F.d.p.y.0.6.;.X.M z X ; (                         ",
"          + < z _ o.=.1.1.1.1.9.e.y.y.a.s.Z.D.S.h.a.y.f.4.>.X.8 5 o : /                         ",
"          d g i 7 } #.*.:.O.1.1.4.4.r.w.w.d.j.j.g.u.e.4.3.,.$.$.C p g ! @X                      ",
"              u 1 z M X.[ [ *.=.*.<.1.2.0.w.a.a.y.y.4.-.#.5.M.K.n.z.l.R ~ Q                     ",
"              : o r z M } X.@.@.X.&.:.<.1.9.t.t.e.e.1.X.` 5.U.}._.^.m.l.l S (                   ",
"                  f i z z b N n 9 _ X.=.:.1.2.9.8.9.:.' ` 5.U.}.]._.^.b.L l ^ #X                ",
"                    a q q q $ < 2 6 { X.&.*.=.:.1.1.=.&.@.,.M.(._.].].^.b.U R ! Q ( ( OX        ",
"                        . + + X o < b ..o.X.X.&.=.>.$.$.@.$.n.U.(. X.X_.^.m.l.k y : > H +X      ",
"                                  j B V N b N 9 _ | | M N C %.x.M.'. X}.).^.m.Z Z l F K V.#X    ",
"                                      u q w < e 1 t e e w t a B P M./.).}.|.{.I.I.L.L.L.N.^ OX  ",
"                                          # # + + @ # # & & *   V v.M./. XXXXX%X%X$X{.[.B.F K #X",
"                                                                  U v.P.|.XX&X&X.X{.I.L.c.^ )   ",
"                                                                  H l c.{.&XXX|./.m.P Y V.#X    ",
"                                                                  h - I [.&X.X).M.z.s S oX      ",
"                                                                  d % L I..X.X).K.z.y ; oX      ",
"                                                                  S * l m.[.{.}.'.v.s : (       ",
"                                                                    > H c.P./.'.`.c.k A Q       ",
"                                                                        U U c.m.B.c.R           ",
"                                                                          s g k H               ",
"                                                                                                ",
"                                                                                                ",
"                                                                                                ",
"                                                                                                ",
"                                                                                                "
};
